<svg xmlns="http://www.w3.org/2000/svg" viewBox="0 0 240 240" width="240" height="240" role="img" aria-label="QR placeholder">
  <rect width="240" height="240" rx="24" fill="#fff"/>
  <rect x="18" y="18" width="204" height="204" rx="10" fill="#fff" stroke="#111" stroke-width="6"/>
  <rect x="34" y="34" width="46" height="46" fill="#111"/>
  <rect x="42" y="42" width="30" height="30" fill="#fff"/>
  <rect x="48" y="48" width="18" height="18" fill="#111"/>
  <rect x="160" y="34" width="46" height="46" fill="#111"/>
  <rect x="168" y="42" width="30" height="30" fill="#fff"/>
  <rect x="174" y="48" width="18" height="18" fill="#111"/>
  <rect x="34" y="160" width="46" height="46" fill="#111"/>
  <rect x="42" y="168" width="30" height="30" fill="#fff"/>
  <rect x="48" y="174" width="18" height="18" fill="#111"/>
  <g fill="#111">
    <rect x="98" y="36" width="10" height="10"/><rect x="110" y="36" width="10" height="10"/><rect x="122" y="36" width="10" height="10"/>
    <rect x="98" y="48" width="10" height="10"/><rect x="122" y="48" width="10" height="10"/>
    <rect x="98" y="60" width="10" height="10"/><rect x="110" y="60" width="10" height="10"/><rect x="134" y="60" width="10" height="10"/>
    <rect x="88" y="88" width="10" height="10"/><rect x="100" y="88" width="10" height="10"/><rect x="124" y="88" width="10" height="10"/><rect x="148" y="88" width="10" height="10"/>
    <rect x="64" y="100" width="10" height="10"/><rect x="88" y="100" width="10" height="10"/><rect x="112" y="100" width="10" height="10"/><rect x="148" y="100" width="10" height="10"/><rect x="172" y="100" width="10" height="10"/>
    <rect x="52" y="112" width="10" height="10"/><rect x="76" y="112" width="10" height="10"/><rect x="88" y="112" width="10" height="10"/><rect x="100" y="112" width="10" height="10"/><rect x="124" y="112" width="10" height="10"/><rect x="160" y="112" width="10" height="10"/><rect x="184" y="112" width="10" height="10"/>
    <rect x="64" y="124" width="10" height="10"/><rect x="88" y="124" width="10" height="10"/><rect x="112" y="124" width="10" height="10"/><rect x="136" y="124" width="10" height="10"/><rect x="160" y="124" width="10" height="10"/>
    <rect x="88" y="136" width="10" height="10"/><rect x="100" y="136" width="10" height="10"/><rect x="124" y="136" width="10" height="10"/><rect x="148" y="136" width="10" height="10"/><rect x="160" y="136" width="10" height="10"/>
    <rect x="88" y="148" width="10" height="10"/><rect x="112" y="148" width="10" height="10"/><rect x="124" y="148" width="10" height="10"/><rect x="172" y="148" width="10" height="10"/>
    <rect x="100" y="160" width="10" height="10"/><rect x="112" y="160" width="10" height="10"/><rect x="136" y="160" width="10" height="10"/><rect x="148" y="160" width="10" height="10"/><rect x="184" y="160" width="10" height="10"/>
    <rect x="88" y="172" width="10" height="10"/><rect x="124" y="172" width="10" height="10"/><rect x="136" y="172" width="10" height="10"/><rect x="160" y="172" width="10" height="10"/>
    <rect x="100" y="184" width="10" height="10"/><rect x="112" y="184" width="10" height="10"/><rect x="124" y="184" width="10" height="10"/><rect x="148" y="184" width="10" height="10"/><rect x="184" y="184" width="10" height="10"/>
  </g>
</svg>
