<svg xmlns="http://www.w3.org/2000/svg" viewBox="0 0 240 240" width="240" height="240" role="img" aria-label="QR placeholder">
  <rect width="240" height="240" rx="24" fill="#fff"/>
  <rect x="18" y="18" width="204" height="204" rx="10" fill="#fff" stroke="#111" stroke-width="6"/>
  <rect x="34" y="34" width="46" height="46" fill="#111"/>
  <rect x="42" y="42" width="30" height="30" fill="#fff"/>
  <rect x="48" y="48" width="18" height="18" fill="#111"/>
  <rect x="160" y="34" width="46" height="46" fill="#111"/>
  <rect x="168" y="42" width="30" height="30" fill="#fff"/>
  <rect x="174" y="48" width="18" height="18" fill="#111"/>
  <rect x="34" y="160" width="46" height="46" fill="#111"/>
  <rect x="42" y="168" width="30" height="30" fill="#fff"/>
  <rect x="48" y="174" width="18" height="18" fill="#111"/>
  <g fill="#111">
    <rect x="96" y="34" width="12" height="12"/><rect x="120" y="34" width="12" height="12"/><rect x="132" y="34" width="12" height="12"/>
    <rect x="108" y="46" width="12" height="12"/><rect x="132" y="46" width="12" height="12"/>
    <rect x="96" y="58" width="12" height="12"/><rect x="108" y="58" width="12" height="12"/><rect x="120" y="58" width="12" height="12"/><rect x="144" y="58" width="12" height="12"/>
    <rect x="58" y="94" width="12" height="12"/><rect x="82" y="94" width="12" height="12"/><rect x="94" y="94" width="12" height="12"/><rect x="142" y="94" width="12" height="12"/><rect x="166" y="94" width="12" height="12"/>
    <rect x="46" y="106" width="12" height="12"/><rect x="70" y="106" width="12" height="12"/><rect x="94" y="106" width="12" height="12"/><rect x="118" y="106" width="12" height="12"/><rect x="142" y="106" width="12" height="12"/><rect x="178" y="106" width="12" height="12"/>
    <rect x="58" y="118" width="12" height="12"/><rect x="82" y="118" width="12" height="12"/><rect x="106" y="118" width="12" height="12"/><rect x="130" y="118" width="12" height="12"/><rect x="154" y="118" width="12" height="12"/>
    <rect x="46" y="130" width="12" height="12"/><rect x="70" y="130" width="12" height="12"/><rect x="94" y="130" width="12" height="12"/><rect x="118" y="130" width="12" height="12"/><rect x="166" y="130" width="12" height="12"/><rect x="178" y="130" width="12" height="12"/>
    <rect x="94" y="142" width="12" height="12"/><rect x="106" y="142" width="12" height="12"/><rect x="130" y="142" width="12" height="12"/><rect x="142" y="142" width="12" height="12"/><rect x="166" y="142" width="12" height="12"/>
    <rect x="94" y="154" width="12" height="12"/><rect x="118" y="154" width="12" height="12"/><rect x="130" y="154" width="12" height="12"/><rect x="154" y="154" width="12" height="12"/><rect x="178" y="154" width="12" height="12"/>
    <rect x="82" y="166" width="12" height="12"/><rect x="106" y="166" width="12" height="12"/><rect x="118" y="166" width="12" height="12"/><rect x="142" y="166" width="12" height="12"/><rect x="154" y="166" width="12" height="12"/>
    <rect x="94" y="178" width="12" height="12"/><rect x="118" y="178" width="12" height="12"/><rect x="142" y="178" width="12" height="12"/><rect x="166" y="178" width="12" height="12"/><rect x="178" y="178" width="12" height="12"/>
  </g>
</svg>
